<svg width="187" height="189" viewBox="0 0 187 189" fill="none" xmlns="http://www.w3.org/2000/svg">
<path d="M170.787 177.094C175.634 181.328 180.485 184.967 185.339 188.009L183.495 188.009C178.996 185.419 174.489 182.187 169.974 178.468C169.075 177.648 168.176 176.869 167.282 176.095L167.28 176.094C166.381 175.315 165.488 174.541 164.595 173.727C163.714 172.923 162.868 172.035 162.012 171.115C161.847 170.938 161.682 170.76 161.516 170.581C160.829 169.839 160.129 169.084 159.404 168.355C156.146 164.434 152.902 160.364 149.984 155.812C144.131 146.68 139.41 136.397 135.171 125.44L135.171 125.438C134.169 122.889 133.185 120.308 132.194 117.711C128.994 109.322 125.726 100.756 121.602 92.4826C118.978 87.0555 115.864 81.7945 112.423 76.8631C111.206 75.0336 109.806 73.2872 108.44 71.585C107.958 70.983 107.479 70.3866 107.015 69.7939L107.008 69.7855L107.001 69.7774C106.505 69.1968 105.969 68.6176 105.441 68.0472L105.437 68.043C104.905 67.4684 104.381 66.9025 103.899 66.3382L103.891 66.3285L103.882 66.3192L100.78 63.0438L100.772 63.0357L100.764 63.0279C92.0598 54.627 81.7219 48.2107 70.9074 43.2802C62.3283 39.3688 53.4354 36.2842 44.5865 33.2148C42.2931 32.4193 40.0026 31.6248 37.7213 30.8172L37.7172 30.8158C26.8008 27.057 16.0607 22.4858 6.46728 16.7785L1.3168 13.491L1.3168 0.967178C1.41898 1.04731 1.5201 1.12937 1.62091 1.21264C1.71556 1.29083 1.81171 1.37164 1.90868 1.45315C2.15042 1.65636 2.39726 1.86385 2.63882 2.04557L2.64993 2.05392L2.66148 2.06164C3.61859 2.70164 4.41872 3.34306 5.39449 4.15868L5.39798 4.16154C6.67549 5.20994 8.12604 6.18372 9.60179 7.17442C10.2242 7.59224 10.851 8.01307 11.4713 8.44378L11.4712 8.44392L11.4823 8.45119C20.0158 14.0476 29.8501 18.4842 40.6363 22.7462L40.6424 22.7485C42.1331 23.3149 43.6355 23.881 45.1474 24.4507C54.5785 28.0041 64.3845 31.6989 74.0706 36.4861C85.294 42.0332 96.0157 49.2045 104.945 58.4837L108.038 62.0762L108.041 62.0786C108.407 62.4992 108.752 62.8808 109.083 63.2462C109.805 64.0449 110.457 64.7668 111.119 65.6523C111.616 66.3171 112.121 66.9784 112.624 67.6371C114.12 69.5972 115.599 71.535 116.81 73.4783L116.81 73.4784L116.816 73.4876C120.232 78.7088 123.319 84.2512 125.755 89.9512L125.757 89.9567C129.532 98.5052 132.484 107.046 135.374 115.405C136.352 118.235 137.323 121.043 138.316 123.824C142.239 134.806 146.497 145.159 151.909 154.208C154.538 158.657 157.656 162.936 160.77 166.717L160.778 166.727L160.786 166.735C161.597 167.631 162.369 168.527 163.145 169.428L163.147 169.43C163.921 170.33 164.7 171.234 165.521 172.14L165.537 172.157L165.554 172.173C167.352 173.813 169.139 175.442 170.762 177.07L170.774 177.082L170.787 177.094Z" stroke="white" stroke-opacity="0.015"/>
</svg>
